<mxfile host="app.diagrams.net" modified="2023-05-01T14:25:35.252Z" agent="Mozilla/5.0 (X11; Linux x86_64; rv:109.0) Gecko/20100101 Firefox/112.0" version="21.2.3" etag="DRdHJsMa1HrFkMAQNbKK" type="github">
  <diagram name="Page-1" id="61faPCEQE7lTU_Fqqk7c">
    <mxGraphModel>
      <root>
        <mxCell id="0" />
        <mxCell id="1" parent="0" />
      </root>
    </mxGraphModel>
  </diagram>
</mxfile>
